<mxfile host="app.diagrams.net" agent="Mozilla/5.0 (Windows NT 10.0; Win64; x64) AppleWebKit/537.36 (KHTML, like Gecko) Chrome/135.0.0.0 Safari/537.36" version="26.2.15">
  <diagram name="Page-1" id="TBFe8KGc2pYBF9kPVnbU">
    <mxGraphModel dx="1042" dy="527" grid="1" gridSize="10" guides="1" tooltips="1" connect="1" arrows="1" fold="1" page="1" pageScale="1" pageWidth="850" pageHeight="1100" math="0" shadow="0">
      <root>
        <mxCell id="0" />
        <mxCell id="1" parent="0" />
        <mxCell id="FV9-wBaukVmD9LtZD8uF-2" value="Client (API)" style="rounded=0;whiteSpace=wrap;html=1;" vertex="1" parent="1">
          <mxGeometry x="220" y="100" width="120" height="60" as="geometry" />
        </mxCell>
        <mxCell id="FV9-wBaukVmD9LtZD8uF-3" value="Task Scheduler (Go)" style="rounded=0;whiteSpace=wrap;html=1;" vertex="1" parent="1">
          <mxGeometry x="185" y="200" width="190" height="60" as="geometry" />
        </mxCell>
        <mxCell id="FV9-wBaukVmD9LtZD8uF-7" style="edgeStyle=orthogonalEdgeStyle;rounded=0;orthogonalLoop=1;jettySize=auto;html=1;exitX=0.5;exitY=1;exitDx=0;exitDy=0;entryX=0.575;entryY=0.047;entryDx=0;entryDy=0;entryPerimeter=0;" edge="1" parent="1" source="FV9-wBaukVmD9LtZD8uF-2" target="FV9-wBaukVmD9LtZD8uF-3">
          <mxGeometry relative="1" as="geometry" />
        </mxCell>
        <mxCell id="FV9-wBaukVmD9LtZD8uF-8" value="Task Queue&lt;div&gt;&amp;nbsp;(Redis)&amp;nbsp;&lt;/div&gt;" style="rounded=1;whiteSpace=wrap;html=1;" vertex="1" parent="1">
          <mxGeometry x="120" y="310" width="120" height="60" as="geometry" />
        </mxCell>
        <mxCell id="FV9-wBaukVmD9LtZD8uF-9" value="AI Service&amp;nbsp;&lt;div&gt;(python)&lt;/div&gt;" style="rounded=1;whiteSpace=wrap;html=1;" vertex="1" parent="1">
          <mxGeometry x="320" y="310" width="120" height="60" as="geometry" />
        </mxCell>
        <mxCell id="FV9-wBaukVmD9LtZD8uF-10" value="&lt;div&gt;Worker Nodes (Go)&lt;/div&gt;" style="rounded=1;whiteSpace=wrap;html=1;" vertex="1" parent="1">
          <mxGeometry x="120" y="410" width="120" height="60" as="geometry" />
        </mxCell>
        <mxCell id="FV9-wBaukVmD9LtZD8uF-11" value="" style="endArrow=classic;html=1;rounded=0;entryX=0.5;entryY=0;entryDx=0;entryDy=0;exitX=0.25;exitY=1;exitDx=0;exitDy=0;" edge="1" parent="1" source="FV9-wBaukVmD9LtZD8uF-3" target="FV9-wBaukVmD9LtZD8uF-8">
          <mxGeometry width="50" height="50" relative="1" as="geometry">
            <mxPoint x="400" y="300" as="sourcePoint" />
            <mxPoint x="450" y="250" as="targetPoint" />
          </mxGeometry>
        </mxCell>
        <mxCell id="FV9-wBaukVmD9LtZD8uF-12" value="" style="endArrow=classic;html=1;rounded=0;entryX=0.5;entryY=0;entryDx=0;entryDy=0;exitX=0.5;exitY=1;exitDx=0;exitDy=0;" edge="1" parent="1" source="FV9-wBaukVmD9LtZD8uF-8" target="FV9-wBaukVmD9LtZD8uF-10">
          <mxGeometry width="50" height="50" relative="1" as="geometry">
            <mxPoint x="243" y="270" as="sourcePoint" />
            <mxPoint x="150" y="320" as="targetPoint" />
          </mxGeometry>
        </mxCell>
        <mxCell id="FV9-wBaukVmD9LtZD8uF-13" value="" style="endArrow=classic;html=1;rounded=0;entryX=0.5;entryY=0;entryDx=0;entryDy=0;exitX=0.75;exitY=1;exitDx=0;exitDy=0;" edge="1" parent="1" source="FV9-wBaukVmD9LtZD8uF-3" target="FV9-wBaukVmD9LtZD8uF-9">
          <mxGeometry width="50" height="50" relative="1" as="geometry">
            <mxPoint x="243" y="270" as="sourcePoint" />
            <mxPoint x="150" y="320" as="targetPoint" />
          </mxGeometry>
        </mxCell>
        <mxCell id="FV9-wBaukVmD9LtZD8uF-14" value="&lt;div&gt;AI Models&lt;/div&gt;" style="rounded=1;whiteSpace=wrap;html=1;" vertex="1" parent="1">
          <mxGeometry x="320" y="410" width="120" height="60" as="geometry" />
        </mxCell>
        <mxCell id="FV9-wBaukVmD9LtZD8uF-15" value="" style="endArrow=classic;html=1;rounded=0;exitX=0.5;exitY=1;exitDx=0;exitDy=0;" edge="1" parent="1" source="FV9-wBaukVmD9LtZD8uF-9" target="FV9-wBaukVmD9LtZD8uF-14">
          <mxGeometry width="50" height="50" relative="1" as="geometry">
            <mxPoint x="150" y="380" as="sourcePoint" />
            <mxPoint x="150" y="420" as="targetPoint" />
          </mxGeometry>
        </mxCell>
        <mxCell id="FV9-wBaukVmD9LtZD8uF-19" value="" style="swimlane;startSize=0;" vertex="1" parent="1">
          <mxGeometry x="480" y="315" width="200" height="250" as="geometry">
            <mxRectangle x="460" y="210" width="50" height="40" as="alternateBounds" />
          </mxGeometry>
        </mxCell>
        <mxCell id="FV9-wBaukVmD9LtZD8uF-18" value="AI-assisted scheduling" style="rounded=1;whiteSpace=wrap;html=1;" vertex="1" parent="FV9-wBaukVmD9LtZD8uF-19">
          <mxGeometry x="40" y="10" width="120" height="60" as="geometry" />
        </mxCell>
        <mxCell id="FV9-wBaukVmD9LtZD8uF-16" value="LLM 自动任务生成器" style="rounded=1;whiteSpace=wrap;html=1;" vertex="1" parent="FV9-wBaukVmD9LtZD8uF-19">
          <mxGeometry x="40" y="90" width="120" height="60" as="geometry" />
        </mxCell>
        <mxCell id="FV9-wBaukVmD9LtZD8uF-17" value="任务内容智能分类" style="rounded=1;whiteSpace=wrap;html=1;" vertex="1" parent="FV9-wBaukVmD9LtZD8uF-19">
          <mxGeometry x="40" y="170" width="120" height="60" as="geometry" />
        </mxCell>
      </root>
    </mxGraphModel>
  </diagram>
</mxfile>
